<svg width="40" height="40" viewBox="0 0 40 40" fill="none" xmlns="http://www.w3.org/2000/svg">
<rect x="0.5" y="0.5" width="39" height="39" rx="9.5" stroke="#F4F4F4" stroke-opacity="0.1"/>
<g opacity="0.8">
<path d="M29.5386 16.0669C29.5268 15.2611 29.3776 14.4617 29.0918 13.7081C28.5918 12.4212 27.5736 11.4037 26.2845 10.9055C25.5393 10.6256 24.7513 10.4755 23.9538 10.4584C22.9282 10.4127 22.603 10.3999 19.9993 10.3999C17.3957 10.3999 17.062 10.3999 16.0437 10.4584C15.2473 10.4755 14.4594 10.6256 13.7141 10.9055C12.4251 11.4037 11.4058 12.4212 10.9068 13.7081C10.6264 14.4521 10.475 15.2388 10.4601 16.0339C10.4143 17.0589 10.4004 17.3836 10.4004 19.9829C10.4004 22.5822 10.4004 22.9143 10.4601 23.9319C10.4761 24.7281 10.6264 25.5136 10.9068 26.2598C11.4069 27.5456 12.4251 28.5632 13.7152 29.0613C14.4573 29.3508 15.2452 29.5148 16.0448 29.5403C17.0716 29.5861 17.3967 29.5999 20.0004 29.5999C22.604 29.5999 22.9378 29.5999 23.956 29.5403C24.7524 29.5243 25.5403 29.3742 26.2867 29.0943C27.5757 28.5951 28.5939 27.5775 29.094 26.2917C29.3744 25.5466 29.5247 24.7611 29.5407 23.9638C29.5865 22.9398 29.6004 22.6152 29.6004 20.0148C29.5983 17.4155 29.5983 17.0855 29.5386 16.0669ZM19.9929 24.8984C17.2699 24.8984 15.0639 22.6961 15.0639 19.9776C15.0639 17.259 17.2699 15.0567 19.9929 15.0567C22.7139 15.0567 24.9219 17.259 24.9219 19.9776C24.9219 22.6961 22.7139 24.8984 19.9929 24.8984ZM25.1181 16.0222C24.4816 16.0222 23.9688 15.5091 23.9688 14.8747C23.9688 14.2403 24.4816 13.7273 25.1181 13.7273C25.7525 13.7273 26.2664 14.2403 26.2664 14.8747C26.2664 15.5091 25.7525 16.0222 25.1181 16.0222Z" fill="#F4F4F4"/>
<path d="M19.9942 22.9821C21.6527 22.9821 22.9972 21.6376 22.9972 19.9791C22.9972 18.3206 21.6527 16.9761 19.9942 16.9761C18.3357 16.9761 16.9912 18.3206 16.9912 19.9791C16.9912 21.6376 18.3357 22.9821 19.9942 22.9821Z" fill="#F4F4F4"/>
</g>
</svg>
